<svg width="90" height="80" viewBox="0 0 90 80" fill="none" xmlns="http://www.w3.org/2000/svg">
<path d="M35.9996 53.2997C36.9712 53.2997 37.7589 52.5121 37.7589 51.5405C37.7589 50.5689 36.9712 49.7812 35.9996 49.7812C35.028 49.7812 34.2404 50.5689 34.2404 51.5405C34.2404 52.5121 35.028 53.2997 35.9996 53.2997Z" fill="#870000"/>
<path d="M45 53.2997C45.9716 53.2997 46.7592 52.5121 46.7592 51.5405C46.7592 50.5689 45.9716 49.7812 45 49.7812C44.0284 49.7812 43.2408 50.5689 43.2408 51.5405C43.2408 52.5121 44.0284 53.2997 45 53.2997Z" fill="#870000"/>
<path d="M54.0003 53.2997C54.9719 53.2997 55.7596 52.5121 55.7596 51.5405C55.7596 50.5689 54.9719 49.7812 54.0003 49.7812C53.0287 49.7812 52.2411 50.5689 52.2411 51.5405C52.2411 52.5121 53.0287 53.2997 54.0003 53.2997Z" fill="#870000"/>
<path d="M16.8883 53.2989C14.5455 53.299 12.2554 52.6043 10.3074 51.3028C8.35938 50.0012 6.8411 48.1513 5.94452 45.9868C5.04794 43.8224 4.81334 41.4407 5.27038 39.1429C5.72741 36.8451 6.85557 34.7345 8.51217 33.0779C10.1688 31.4213 12.2794 30.2931 14.5772 29.8361C16.875 29.3791 19.2567 29.6137 21.4211 30.5103C23.5856 31.4068 25.4355 32.9251 26.7371 34.8731C28.0386 36.8211 28.7333 39.1113 28.7332 41.4541C28.7296 44.5944 27.4806 47.6052 25.26 49.8257C23.0394 52.0463 20.0287 53.2954 16.8883 53.2989ZM16.8883 33.1245C15.2409 33.1244 13.6304 33.6129 12.2606 34.5281C10.8907 35.4433 9.82307 36.7442 9.19257 38.2662C8.56207 39.7883 8.39707 41.4631 8.71842 43.0789C9.03978 44.6947 9.83307 46.1789 10.998 47.3438C12.1629 48.5088 13.6471 49.3021 15.2628 49.6236C16.8786 49.945 18.5534 49.7801 20.0755 49.1496C21.5975 48.5192 22.8985 47.4516 23.8137 46.0818C24.729 44.712 25.2176 43.1015 25.2176 41.4541C25.2151 39.2457 24.3368 37.1285 22.7753 35.567C21.2138 34.0054 19.0967 33.127 16.8883 33.1245Z" fill="#870000"/>
<path d="M32.0193 74.482H1.75781C1.29161 74.482 0.844505 74.2968 0.514851 73.9671C0.185198 73.6375 0 73.1903 0 72.7241L0 66.6716C0.0203752 62.2059 1.80868 57.93 4.97369 54.7794C8.13869 51.6288 12.4227 49.86 16.8885 49.86C21.3543 49.86 25.6384 51.6288 28.8034 54.7794C31.9684 57.93 33.7567 62.2059 33.7771 66.6716V72.7241C33.7771 72.955 33.7316 73.1836 33.6433 73.3968C33.5549 73.6101 33.4254 73.8039 33.2622 73.9671C33.099 74.1303 32.9052 74.2598 32.6919 74.3482C32.4787 74.4365 32.2501 74.482 32.0193 74.482ZM3.51562 70.9663H30.2614V66.6716C30.2433 63.1368 28.8264 59.7529 26.3205 57.2598C23.8145 54.7667 20.4234 53.3671 16.8885 53.3671C13.3537 53.3671 9.96255 54.7667 7.45661 57.2598C4.95067 59.7529 3.53375 63.1368 3.51562 66.6716V70.9663Z" fill="#870000"/>
<path d="M73.1116 53.2989C70.7688 53.299 68.4787 52.6043 66.5307 51.3028C64.5827 50.0012 63.0644 48.1513 62.1678 45.9868C61.2712 43.8224 61.0366 41.4407 61.4937 39.1429C61.9507 36.8451 63.0789 34.7345 64.7355 33.0779C66.3921 31.4213 68.5027 30.2931 70.8005 29.8361C73.0983 29.3791 75.48 29.6137 77.6444 30.5103C79.8088 31.4068 81.6588 32.9251 82.9603 34.8731C84.2619 36.8211 84.9566 39.1113 84.9565 41.4541C84.9529 44.5944 83.7039 47.6052 81.4833 49.8257C79.2627 52.0463 76.252 53.2954 73.1116 53.2989ZM73.1116 33.1245C71.4642 33.1244 69.8537 33.6129 68.4839 34.5281C67.114 35.4433 66.0464 36.7442 65.4159 38.2662C64.7854 39.7883 64.6204 41.4631 64.9417 43.0789C65.2631 44.6947 66.0564 46.1789 67.2213 47.3438C68.3862 48.5088 69.8703 49.3021 71.4861 49.6236C73.1019 49.945 74.7767 49.7801 76.2988 49.1496C77.8208 48.5192 79.1218 47.4516 80.037 46.0818C80.9523 44.712 81.4409 43.1015 81.4409 41.4541C81.4385 39.2457 80.5602 37.1285 78.9987 35.5669C77.4372 34.0053 75.32 33.1269 73.1116 33.1245Z" fill="#870000"/>
<path d="M88.2422 74.482H57.9807C57.5145 74.482 57.0674 74.2968 56.7378 73.9671C56.4081 73.6375 56.2229 73.1903 56.2229 72.7241V66.6716C56.2433 62.2059 58.0316 57.93 61.1966 54.7794C64.3616 51.6288 68.6456 49.86 73.1115 49.86C77.5773 49.86 81.8613 51.6288 85.0263 54.7794C88.1913 57.93 89.9796 62.2059 90 66.6716V72.7241C90 73.1903 89.8148 73.6375 89.4851 73.9671C89.1555 74.2968 88.7084 74.482 88.2422 74.482ZM59.7386 70.9663H86.4844V66.6716C86.4662 63.1368 85.0493 59.7529 82.5434 57.2598C80.0374 54.7667 76.6463 53.3671 73.1115 53.3671C69.5766 53.3671 66.1855 54.7667 63.6795 57.2598C61.1736 59.7529 59.7567 63.1368 59.7386 66.6716V70.9663Z" fill="#870000"/>
<path d="M36.9875 41.0497C36.5213 41.0497 36.0742 40.8645 35.7446 40.5348C35.4149 40.2052 35.2297 39.7581 35.2297 39.2919V34.0979H33.4719C31.9526 34.0963 30.4959 33.4921 29.4216 32.4177C28.3473 31.3434 27.743 29.8868 27.7415 28.3674V11.2463C27.743 9.72701 28.3473 8.27036 29.4216 7.19603C30.4959 6.1217 31.9526 5.51745 33.4719 5.51587H56.1576C57.6769 5.51736 59.1336 6.12158 60.208 7.19593C61.2823 8.27028 61.8865 9.72698 61.888 11.2463V28.3674C61.8864 29.8868 61.2822 31.3434 60.2079 32.4177C59.1335 33.4921 57.6769 34.0963 56.1576 34.0979H44.6678L38.2307 40.5347C38.0675 40.6981 37.8738 40.8277 37.6604 40.9161C37.4471 41.0045 37.2185 41.0499 36.9875 41.0497ZM33.4719 9.0336C32.8845 9.0336 32.3212 9.26695 31.9058 9.68231C31.4904 10.0977 31.2571 10.661 31.2571 11.2484V28.3695C31.2571 28.957 31.4904 29.5203 31.9058 29.9357C32.3212 30.351 32.8845 30.5844 33.4719 30.5844H36.9875C37.4538 30.5844 37.9009 30.7696 38.2305 31.0992C38.5602 31.4289 38.7454 31.876 38.7454 32.3422V35.0492L42.6962 31.0984C42.8593 30.935 43.0531 30.8055 43.2663 30.7171C43.4796 30.6287 43.7082 30.5833 43.939 30.5833H56.159C56.4498 30.5833 56.7378 30.526 57.0065 30.4147C57.2753 30.3034 57.5194 30.1403 57.7251 29.9346C57.9308 29.7289 58.0939 29.4848 58.2052 29.2161C58.3165 28.9473 58.3738 28.6593 58.3738 28.3685V11.2474C58.3738 10.9565 58.3165 10.6685 58.2052 10.3998C58.0939 10.1311 57.9308 9.88693 57.7251 9.68126C57.5194 9.47559 57.2753 9.31245 57.0065 9.20114C56.7378 9.08984 56.4498 9.03255 56.159 9.03255L33.4719 9.0336Z" fill="#870000"/>
</svg>
