<svg width="208" height="80" viewBox="0 0 208 80" fill="none" xmlns="http://www.w3.org/2000/svg">
<g clip-path="url(#clip0_1_1794)">
<path d="M112.208 13.0786H123.238L109.844 47.0514H97.2386C91.0512 31.4096 84.8795 15.7573 78.6606 0H89.9744C94.4425 11.9511 98.9123 23.8951 103.384 35.8322L103.641 35.89L112.208 13.0786Z" fill="#7C180F"/>
<path d="M113.589 9.36511L117.098 0H128.412C127.151 3.19349 125.938 6.26617 124.735 9.36511H113.589Z" fill="#7C180F"/>
<path d="M109.408 79.7951C108.032 77.3685 106.724 75.0679 105.422 72.7726L105.059 72.8514C104.571 75.1152 105.059 77.4525 104.771 79.7531C104.037 79.8667 103.292 79.8826 102.554 79.8004V68.9961C103.605 68.744 104.655 68.9541 105.779 68.87C107.166 71.0498 108.221 73.3871 109.645 75.4986L109.923 75.4408V68.9908C110.69 68.8553 111.472 68.834 112.245 68.9278V79.7951H109.408Z" fill="#7C180F"/>
<path d="M171.324 79.8056V68.9593C172.419 68.8611 173.52 68.8418 174.618 68.9015L178.452 75.6509L178.714 75.5932V68.9961C179.476 68.8648 180.251 68.8348 181.02 68.9068V79.7794H178.194C176.787 77.2949 175.358 74.779 173.935 72.2579L173.641 72.3419V79.7478C172.874 79.8588 172.096 79.8782 171.324 79.8056Z" fill="#7C180F"/>
<path d="M68.5917 79.7427L66.4907 76.213C65.9077 75.9294 65.3457 76.1132 64.7364 76.0554C64.3845 77.295 64.7679 78.5346 64.4843 79.7742C63.7282 79.8819 62.9608 79.8819 62.2047 79.7742V68.8754C64.3057 68.9331 66.3174 68.7073 68.3448 69.0277C69.9626 69.2903 70.8345 70.1359 71.1286 71.5856C71.3199 72.3078 71.2781 73.072 71.0093 73.769C70.7405 74.4661 70.2583 75.0604 69.6317 75.4672C69.4531 75.588 69.264 75.693 69.0434 75.8348C69.6737 77.19 70.6191 78.3245 71.4333 79.7427H68.5917ZM64.6471 73.7864C65.6976 73.7864 66.6325 73.8442 67.5727 73.7864C67.7376 73.7798 67.8992 73.7381 68.0467 73.6641C68.1943 73.5901 68.3243 73.4854 68.4282 73.3572C68.5321 73.229 68.6074 73.08 68.6492 72.9204C68.691 72.7607 68.6982 72.5939 68.6705 72.4313C68.6826 72.2781 68.6637 72.1242 68.6148 71.9785C68.566 71.8329 68.4882 71.6987 68.3861 71.5839C68.2841 71.4691 68.1599 71.3761 68.021 71.3105C67.8821 71.2449 67.7314 71.2081 67.578 71.2022C66.6018 71.0446 65.6051 71.066 64.6366 71.2652C64.5472 72.1034 64.5508 72.9489 64.6471 73.7864Z" fill="#7C180F"/>
<path d="M150.026 75.8768C150.85 77.1742 151.601 78.377 152.484 79.7374H149.663L147.499 76.1605C146.878 75.9792 146.219 75.9792 145.598 76.1605V79.7164C144.822 79.8263 144.037 79.8579 143.255 79.8109V68.8858C145.466 68.9488 147.678 68.639 149.868 69.1327C150.458 69.2385 150.997 69.5327 151.405 69.9712C151.814 70.4097 152.068 70.9688 152.132 71.5646C152.337 72.9512 152.258 74.2906 151.003 75.2413C150.745 75.4514 150.42 75.6352 150.026 75.8768ZM145.629 73.8179C146.643 73.8179 147.515 73.8494 148.382 73.8179C148.559 73.83 148.737 73.8044 148.903 73.7427C149.07 73.681 149.221 73.5847 149.348 73.4601C149.475 73.3355 149.573 73.1854 149.638 73.0198C149.702 72.8542 149.73 72.6769 149.721 72.4995C149.74 72.3234 149.721 72.1451 149.665 71.9772C149.608 71.8092 149.515 71.6557 149.393 71.5271C149.271 71.3986 149.123 71.2983 148.958 71.2331C148.793 71.1679 148.616 71.1394 148.439 71.1496C147.516 71.066 146.587 71.0766 145.666 71.1811C145.564 72.0565 145.552 72.94 145.629 73.8179Z" fill="#7C180F"/>
<path d="M52.1988 79.9737C48.811 79.9737 46.4474 77.6101 46.4789 74.2958C46.5104 70.9815 48.916 68.702 52.3196 68.7493C55.7232 68.7965 57.9555 71.0498 57.9555 74.3536C57.9555 77.6574 55.6024 79.9947 52.1988 79.9737ZM55.4868 74.4692C55.5394 72.4155 54.2368 70.971 52.3039 70.9343C51.4579 70.9966 50.665 71.3697 50.0777 71.9817C49.4905 72.5937 49.1504 73.4014 49.123 74.2492C49.0956 75.0969 49.3828 75.9248 49.9294 76.5735C50.4759 77.2221 51.2431 77.6456 52.0833 77.7625C54.0477 77.8517 55.4291 76.5071 55.4868 74.4692Z" fill="#7C180F"/>
<path d="M198.973 68.949H206.946C207.183 69.5898 207.062 70.2673 207.025 71.0815H201.505C201.364 71.7975 201.336 72.5312 201.421 73.256H206.216C206.447 73.9412 206.49 74.6755 206.342 75.3832H201.442V77.5525H206.904C207.1 78.2747 207.14 79.0304 207.02 79.769H198.973V68.949Z" fill="#7C180F"/>
<path d="M129.063 68.9593C129.886 68.8463 130.72 68.8463 131.542 68.9593V72.7359C131.542 73.571 131.542 74.4009 131.542 75.2308C131.626 76.9536 132.404 77.794 133.874 77.794C135.345 77.794 136.122 76.9903 136.185 75.2203C136.248 73.6078 136.185 71.9848 136.217 70.367C136.163 69.8937 136.208 69.4145 136.348 68.9593C137.086 68.8407 137.838 68.8407 138.575 68.9593C138.549 71.6486 138.848 74.3116 138.37 76.9431C138.26 77.6208 137.948 78.2494 137.475 78.747C137.002 79.2446 136.389 79.5879 135.718 79.7321C134.489 80.0683 133.192 80.0683 131.962 79.7321C131.251 79.5671 130.608 79.1872 130.121 78.644C129.633 78.1009 129.324 77.4208 129.236 76.6962C128.822 74.1488 129.126 71.5803 129.063 68.9593Z" fill="#7C180F"/>
<path d="M116.751 79.0808V76.6122C118.548 77.4841 120.291 78.356 122.251 77.4473C122.455 77.3465 122.612 77.1696 122.687 76.9546C122.763 76.7396 122.751 76.5036 122.655 76.297C122.495 76.098 122.294 75.9358 122.066 75.8216C121.837 75.7074 121.587 75.6438 121.331 75.6352C120.554 75.5206 119.782 75.3664 119.02 75.173C117.387 74.7108 116.741 73.9124 116.683 72.4312C116.614 71.7048 116.796 70.9767 117.198 70.3679C117.6 69.7592 118.199 69.3066 118.894 69.0854C120.709 68.531 122.665 68.6695 124.383 69.4741C124.651 69.8628 124.525 70.3145 124.525 70.7399C124.602 71.118 124.568 71.5106 124.425 71.8692C121.416 70.5193 120.097 70.5403 119.136 71.9743C119.136 72.7726 119.787 72.9039 120.386 73.0248C121.2 73.1981 122.03 73.2716 122.828 73.4922C124.488 73.9544 125.197 74.8999 125.208 76.5019C125.263 77.2129 125.063 77.9203 124.645 78.4977C124.226 79.075 123.616 79.4847 122.923 79.6533C120.87 80.2774 118.654 80.0718 116.751 79.0808Z" fill="#7C180F"/>
<path d="M158.267 79.8372H155.74L160.331 69.0014C161.136 68.8789 161.953 68.8595 162.763 68.9436L167.385 79.7952H164.832C164.438 79.3277 164.37 78.6869 164.013 78.1144H159.039L158.267 79.8372ZM159.947 75.8559H163.209C162.642 74.506 162.122 73.2717 161.507 71.801C160.919 73.3084 160.32 74.4955 159.947 75.8296V75.8559Z" fill="#7C180F"/>
<path d="M30.669 76.6069V78.9547C28.7203 80.5304 24.9859 80.2678 23.0582 78.4295C21.1306 76.5911 20.91 72.9984 22.596 70.8344C24.282 68.6704 28.0743 68.0559 30.6375 69.6631V72.074C27.8327 70.5823 25.8683 70.6243 24.6497 72.1528C24.1797 72.8173 23.9331 73.6139 23.9454 74.4277C23.9576 75.2415 24.2282 76.0304 24.718 76.6804C25.9891 78.1458 27.9955 78.1563 30.669 76.6069Z" fill="#7C180F"/>
<path d="M6.70212 79.8371H4.26499C2.85208 76.2234 1.43917 72.6255 0 68.9646C0.859255 68.8602 1.72696 68.8443 2.58946 68.9173C3.51389 71.3544 4.44357 73.7916 5.4678 76.4966C6.67586 73.9071 7.44797 71.3965 8.40917 68.9383C9.25291 68.8333 10.1074 68.851 10.9461 68.9908L6.70212 79.8371Z" fill="#7C180F"/>
<path d="M194.461 76.6174V79.0546C192.066 80.6303 188.405 80.1471 186.625 78.1144C185.77 77.0851 185.293 75.7941 185.274 74.4562C185.255 73.1184 185.694 71.8143 186.52 70.761C188.279 68.618 191.903 68.0822 194.44 69.6317C194.522 70.4501 194.552 71.2729 194.53 72.0951C191.693 70.5771 189.734 70.6192 188.484 72.1581C188.014 72.818 187.766 73.6105 187.776 74.4209C187.786 75.2312 188.055 76.0172 188.542 76.6647C189.844 78.1512 191.935 78.1669 194.461 76.6174Z" fill="#7C180F"/>
<path d="M80.9927 79.7793H78.5608V75.425C77.1007 73.324 75.6615 71.2231 74.1068 68.9698C75.0712 68.8637 76.043 68.8408 77.0114 68.9015L79.7846 73.1034L82.5474 68.9015H85.1159C85.3522 69.2849 85.0266 69.4845 84.8743 69.7104C83.8238 71.2231 82.8206 72.7515 81.7228 74.2222C81.1781 74.9089 80.9102 75.7745 80.9717 76.6488C81.04 77.6521 80.9927 78.6553 80.9927 79.7793Z" fill="#7C180F"/>
<path d="M40.0552 79.8058H37.6285V71.0814H34.3773C34.2584 70.3862 34.2584 69.6758 34.3773 68.9805H43.1541C43.3108 69.6269 43.3411 70.2975 43.2434 70.9554C42.2402 71.3336 41.1424 70.9291 40.0552 71.2548V79.8058Z" fill="#7C180F"/>
<path d="M14.7436 68.8542H17.1912V79.8371H14.7436V68.8542Z" fill="#7C180F"/>
<path d="M97.7743 79.8372C96.9607 79.9238 96.1402 79.9238 95.3267 79.8372V68.9226C96.0883 68.6547 96.9024 68.8963 97.7743 68.7808V79.8372Z" fill="#7C180F"/>
</g>
<defs>
<clipPath id="clip0_1_1794">
<rect width="207.088" height="80" fill="white"/>
</clipPath>
</defs>
</svg>
